<?xml version="1.0" encoding="utf-8"?>
<!-- Generator: Adobe Illustrator 17.1.0, SVG Export Plug-In . SVG Version: 6.00 Build 0)  -->
<svg version="1.2" baseProfile="tiny" xmlns="http://www.w3.org/2000/svg" xmlns:xlink="http://www.w3.org/1999/xlink" x="0px"
	 y="0px" viewBox="0 0 21.4 22.1" xml:space="preserve">
<g id="Layer_1">
</g>
<g id="Layer_2">
	<path d="M18.7,3.4l-5.3,3V0.3c0-0.2-2.1-0.3-3.1-0.3C9.5,0,9.5,0.1,7.5,0.3v6.1l-5-3.1C1.3,4.6,0.5,6.1,0,7.9l5.4,3L0.1,14
		c0.5,1.7,1,3.3,2.2,4.6l5.2-3.1v6.4c2,0.2,2,0.3,2.9,0.3c0.9,0,3.1-0.1,3.1-0.3v-6.3l5.4,3.1c1.2-1.3,2.1-2.9,2.5-4.6l-5.3-3l5.2-3
		C20.9,6.2,19.9,4.7,18.7,3.4z"/>
</g>
</svg>
